<svg xmlns="http://www.w3.org/2000/svg" xmlns:xlink="http://www.w3.org/1999/xlink" width="226" zoomAndPan="magnify" viewBox="0 0 169.5 48.75" height="65" preserveAspectRatio="xMidYMid meet" version="1.0"><defs><clipPath id="fb87e54e28"><path d="M 164 28 L 168.820312 28 L 168.820312 42 L 164 42 Z M 164 28 " clip-rule="nonzero"/></clipPath><clipPath id="7f293d4aa8"><path d="M 9 7 L 42 7 L 42 48.460938 L 9 48.460938 Z M 9 7 " clip-rule="nonzero"/></clipPath><clipPath id="593a095810"><path d="M 0.183594 8 L 8 8 L 8 41 L 0.183594 41 Z M 0.183594 8 " clip-rule="nonzero"/></clipPath></defs><path fill="#FFFF" d="M 49.804688 7.375 L 49.804688 8.164062 L 51.757812 8.164062 L 51.757812 19.226562 L 49.804688 19.226562 L 49.804688 20.015625 L 58.144531 20.015625 C 61.183594 20.015625 62.683594 18.378906 62.683594 16.613281 C 62.683594 14.859375 61.148438 13.578125 58.914062 13.417969 C 61.578125 12.917969 62.089844 11.40625 62.089844 10.546875 C 62.089844 8.851562 60.542969 7.375 57.585938 7.375 Z M 54.027344 13.136719 L 54.027344 8.164062 L 57.367188 8.164062 C 59.261719 8.164062 59.660156 9.605469 59.660156 10.523438 C 59.660156 11.8125 58.9375 13.136719 56.773438 13.136719 Z M 54.027344 19.226562 L 54.027344 13.753906 L 57.703125 13.753906 C 59.855469 13.753906 60.171875 15.742188 60.171875 16.566406 C 60.171875 17.726562 59.542969 19.226562 57.425781 19.226562 Z M 54.027344 19.226562 " fill-opacity="1" fill-rule="nonzero"/><path fill="#FFFF" d="M 72.339844 14.507812 C 72.339844 12.8125 70.992188 11.675781 68.382812 11.675781 C 67.347656 11.675781 65.171875 11.753906 65.171875 13.3125 C 65.171875 14.078125 65.765625 14.417969 66.265625 14.417969 C 66.8125 14.417969 67.347656 14.03125 67.347656 13.324219 C 67.347656 12.976562 67.21875 12.648438 66.90625 12.441406 C 67.523438 12.277344 67.964844 12.277344 68.3125 12.277344 C 69.570312 12.277344 70.328125 12.976562 70.328125 14.484375 L 70.328125 15.230469 C 67.40625 15.230469 64.472656 16.03125 64.472656 18.078125 C 64.472656 19.761719 66.617188 20.132812 67.882812 20.132812 C 69.304688 20.132812 70.210938 19.355469 70.582031 18.542969 C 70.582031 19.226562 70.582031 20.015625 72.445312 20.015625 L 73.386719 20.015625 C 73.773438 20.015625 73.921875 20.015625 73.921875 19.609375 C 73.921875 19.226562 73.761719 19.226562 73.492188 19.226562 C 72.339844 19.203125 72.339844 18.914062 72.339844 18.484375 Z M 70.328125 17.460938 C 70.328125 19.191406 68.769531 19.515625 68.1875 19.515625 C 67.277344 19.515625 66.523438 18.914062 66.523438 18.066406 C 66.523438 16.390625 68.511719 15.8125 70.328125 15.71875 Z M 70.328125 17.460938 " fill-opacity="1" fill-rule="nonzero"/><path fill="#FFFF" d="M 82.503906 13.035156 C 82.621094 12.777344 82.6875 12.625 83.863281 12.625 L 83.863281 11.835938 C 83.246094 11.871094 83.167969 11.871094 82.410156 11.871094 C 81.910156 11.871094 81.875 11.871094 80.828125 11.835938 L 80.828125 12.625 C 80.839844 12.625 81.710938 12.625 81.710938 12.871094 C 81.710938 12.917969 81.652344 13.035156 81.640625 13.089844 L 79.476562 17.726562 L 77.117188 12.625 L 78.128906 12.625 L 78.128906 11.835938 C 77.6875 11.871094 76.429688 11.871094 75.917969 11.871094 C 75.382812 11.871094 74.289062 11.871094 73.8125 11.835938 L 73.8125 12.625 L 74.996094 12.625 L 78.40625 20.015625 C 78.3125 20.238281 78.058594 20.773438 77.964844 20.992188 C 77.582031 21.816406 76.988281 23.097656 75.695312 23.097656 C 75.613281 23.097656 75.394531 23.097656 75.195312 22.980469 C 75.230469 22.96875 75.789062 22.746094 75.789062 22.039062 C 75.789062 21.433594 75.347656 21.050781 74.789062 21.050781 C 74.21875 21.050781 73.777344 21.433594 73.777344 22.0625 C 73.777344 22.933594 74.589844 23.699219 75.695312 23.699219 C 77.207031 23.699219 78.210938 22.339844 78.570312 21.527344 Z M 82.503906 13.035156 " fill-opacity="1" fill-rule="nonzero"/><path fill="#FFFF" d="M 92.097656 15.9375 C 92.519531 15.9375 92.632812 15.9375 92.632812 15.484375 C 92.632812 14.925781 92.507812 13.542969 91.65625 12.683594 C 90.878906 11.90625 89.84375 11.675781 88.769531 11.675781 C 85.898438 11.675781 84.328125 13.542969 84.328125 15.867188 C 84.328125 18.449219 86.234375 20.132812 89.015625 20.132812 C 91.796875 20.132812 92.632812 18.167969 92.632812 17.855469 C 92.632812 17.589844 92.355469 17.589844 92.25 17.589844 C 91.949219 17.589844 91.9375 17.636719 91.820312 17.878906 C 91.34375 19.074219 90.121094 19.460938 89.238281 19.460938 C 86.5625 19.460938 86.539062 16.972656 86.539062 15.9375 Z M 86.539062 15.414062 C 86.582031 14.648438 86.59375 13.941406 86.992188 13.277344 C 87.339844 12.683594 87.980469 12.277344 88.769531 12.277344 C 90.75 12.277344 90.914062 14.484375 90.9375 15.414062 Z M 86.539062 15.414062 " fill-opacity="1" fill-rule="nonzero"/><path fill="#FFFF" d="M 100.191406 12.152344 C 100.191406 11.800781 100.191406 11.675781 99.910156 11.675781 C 99.804688 11.675781 99.757812 11.675781 99.492188 11.835938 C 99.410156 11.894531 99.210938 12.023438 99.121094 12.070312 C 98.605469 11.777344 97.921875 11.675781 97.257812 11.675781 C 96.699219 11.675781 93.929688 11.675781 93.929688 14.066406 C 93.929688 15.996094 96.222656 16.402344 96.792969 16.496094 C 97.292969 16.589844 97.898438 16.707031 97.980469 16.707031 C 98.710938 16.867188 99.445312 17.320312 99.445312 18.101562 C 99.445312 19.515625 97.769531 19.515625 97.386719 19.515625 C 96.441406 19.515625 95.28125 19.226562 94.765625 17.4375 C 94.652344 17.066406 94.640625 17.054688 94.324219 17.054688 C 93.929688 17.054688 93.929688 17.101562 93.929688 17.53125 L 93.929688 19.644531 C 93.929688 19.992188 93.929688 20.132812 94.207031 20.132812 C 94.335938 20.132812 94.371094 20.132812 94.742188 19.832031 L 95.222656 19.484375 C 96.058594 20.132812 97.046875 20.132812 97.386719 20.132812 C 98.398438 20.132812 100.703125 19.902344 100.703125 17.460938 C 100.703125 16.566406 100.226562 15.960938 99.851562 15.636719 C 99.097656 15.007812 98.46875 14.894531 97.480469 14.707031 C 96.292969 14.507812 95.1875 14.300781 95.1875 13.417969 C 95.1875 12.21875 96.828125 12.21875 97.222656 12.21875 C 99.269531 12.21875 99.375 13.511719 99.410156 13.976562 C 99.433594 14.207031 99.585938 14.207031 99.804688 14.207031 C 100.191406 14.207031 100.191406 14.160156 100.191406 13.730469 Z M 100.191406 12.152344 " fill-opacity="1" fill-rule="nonzero"/><path fill="#FFFF" d="M 54.179688 35.503906 L 57.308594 35.503906 C 60.390625 35.503906 62.113281 33.933594 62.113281 32.042969 C 62.113281 30.054688 60.355469 28.484375 57.308594 28.484375 L 49.78125 28.484375 L 49.78125 29.277344 L 51.734375 29.277344 L 51.734375 40.335938 L 49.78125 40.335938 L 49.78125 41.128906 C 50.316406 41.09375 52.292969 41.09375 52.957031 41.09375 C 53.621094 41.09375 55.597656 41.09375 56.132812 41.128906 L 56.132812 40.335938 L 54.179688 40.335938 Z M 56.644531 29.277344 C 59.507812 29.277344 59.507812 30.785156 59.507812 32.042969 C 59.507812 33.261719 59.507812 34.808594 56.644531 34.808594 L 54.085938 34.808594 L 54.085938 29.277344 Z M 56.644531 29.277344 " fill-opacity="1" fill-rule="nonzero"/><path fill="#FFFF" d="M 67.269531 28.335938 L 64.082031 28.484375 L 64.082031 29.277344 C 65.222656 29.277344 65.351562 29.277344 65.351562 29.996094 L 65.351562 40.335938 L 64.082031 40.335938 L 64.082031 41.128906 C 64.5 41.09375 65.816406 41.09375 66.316406 41.09375 C 66.816406 41.09375 68.121094 41.09375 68.550781 41.128906 L 68.550781 40.335938 L 67.269531 40.335938 Z M 67.269531 28.335938 " fill-opacity="1" fill-rule="nonzero"/><path fill="#FFFF" d="M 75.554688 32.984375 L 75.554688 33.773438 C 76.691406 33.773438 76.820312 33.773438 76.820312 34.492188 L 76.820312 38.105469 C 76.820312 39.5 75.996094 40.628906 74.550781 40.628906 C 73.167969 40.628906 73.097656 40.175781 73.097656 39.152344 L 73.097656 32.832031 L 69.816406 32.984375 L 69.816406 33.773438 C 70.957031 33.773438 71.085938 33.773438 71.085938 34.492188 L 71.085938 38.863281 C 71.085938 40.710938 72.316406 41.242188 74.296875 41.242188 C 74.738281 41.242188 76.101562 41.242188 76.902344 39.746094 L 76.914062 39.746094 L 76.914062 41.242188 L 80.113281 41.128906 L 80.113281 40.335938 C 78.960938 40.335938 78.835938 40.335938 78.835938 39.617188 L 78.835938 32.832031 Z M 75.554688 32.984375 " fill-opacity="1" fill-rule="nonzero"/><path fill="#FFFF" d="M 84.414062 36.980469 C 84.414062 36.375 84.542969 33.449219 86.707031 33.449219 C 86.4375 33.644531 86.3125 33.957031 86.3125 34.296875 C 86.3125 35.050781 86.925781 35.363281 87.382812 35.363281 C 87.847656 35.363281 88.453125 35.050781 88.453125 34.296875 C 88.453125 33.355469 87.496094 32.832031 86.613281 32.832031 C 85.148438 32.832031 84.519531 34.109375 84.261719 34.875 L 84.25 34.875 L 84.25 32.832031 L 81.226562 32.984375 L 81.226562 33.773438 C 82.367188 33.773438 82.492188 33.773438 82.492188 34.492188 L 82.492188 40.335938 L 81.226562 40.335938 L 81.226562 41.128906 C 81.644531 41.09375 83.027344 41.09375 83.542969 41.09375 C 84.078125 41.09375 85.578125 41.09375 86.019531 41.128906 L 86.019531 40.335938 L 84.414062 40.335938 Z M 84.414062 36.980469 " fill-opacity="1" fill-rule="nonzero"/><path fill="#FFFF" d="M 93.175781 29.648438 C 93.175781 28.890625 92.558594 28.324219 91.835938 28.324219 C 91.082031 28.324219 90.511719 28.949219 90.511719 29.648438 C 90.511719 30.34375 91.082031 30.972656 91.835938 30.972656 C 92.558594 30.972656 93.175781 30.402344 93.175781 29.648438 Z M 89.929688 32.984375 L 89.929688 33.773438 C 91.011719 33.773438 91.136719 33.773438 91.136719 34.492188 L 91.136719 40.335938 L 89.871094 40.335938 L 89.871094 41.128906 C 90.289062 41.09375 91.570312 41.09375 92.070312 41.09375 C 92.582031 41.09375 93.757812 41.09375 94.199219 41.128906 L 94.199219 40.335938 L 93.058594 40.335938 L 93.058594 32.832031 Z M 89.929688 32.984375 " fill-opacity="1" fill-rule="nonzero"/><path fill="#FFFF" d="M 104.621094 35.492188 C 104.621094 33.738281 103.867188 32.832031 101.839844 32.832031 C 100.503906 32.832031 99.363281 33.480469 98.734375 34.863281 L 98.722656 34.863281 L 98.722656 32.832031 L 95.605469 32.984375 L 95.605469 33.773438 C 96.746094 33.773438 96.871094 33.773438 96.871094 34.492188 L 96.871094 40.335938 L 95.605469 40.335938 L 95.605469 41.128906 C 96.023438 41.09375 97.347656 41.09375 97.875 41.09375 C 98.386719 41.09375 99.734375 41.09375 100.152344 41.128906 L 100.152344 40.335938 L 98.886719 40.335938 L 98.886719 36.410156 C 98.886719 34.421875 100.363281 33.449219 101.539062 33.449219 C 102.226562 33.449219 102.609375 33.890625 102.609375 35.285156 L 102.609375 40.335938 L 101.339844 40.335938 L 101.339844 41.128906 C 101.757812 41.09375 103.097656 41.09375 103.609375 41.09375 C 104.121094 41.09375 105.472656 41.09375 105.902344 41.128906 L 105.902344 40.335938 L 104.621094 40.335938 Z M 104.621094 35.492188 " fill-opacity="1" fill-rule="nonzero"/><path fill="#FFFF" d="M 114.855469 35.621094 C 114.855469 33.921875 113.507812 32.785156 110.898438 32.785156 C 109.863281 32.785156 107.6875 32.867188 107.6875 34.421875 C 107.6875 35.191406 108.28125 35.527344 108.78125 35.527344 C 109.328125 35.527344 109.863281 35.144531 109.863281 34.433594 C 109.863281 34.085938 109.734375 33.761719 109.421875 33.550781 C 110.039062 33.390625 110.480469 33.390625 110.828125 33.390625 C 112.085938 33.390625 112.84375 34.085938 112.84375 35.597656 L 112.84375 36.339844 C 109.921875 36.339844 106.988281 37.140625 106.988281 39.1875 C 106.988281 40.871094 109.132812 41.242188 110.398438 41.242188 C 111.820312 41.242188 112.726562 40.464844 113.097656 39.652344 C 113.097656 40.335938 113.097656 41.128906 114.960938 41.128906 L 115.902344 41.128906 C 116.289062 41.128906 116.4375 41.128906 116.4375 40.722656 C 116.4375 40.335938 116.277344 40.335938 116.007812 40.335938 C 114.855469 40.316406 114.855469 40.023438 114.855469 39.59375 Z M 112.84375 38.570312 C 112.84375 40.304688 111.285156 40.628906 110.703125 40.628906 C 109.792969 40.628906 109.039062 40.023438 109.039062 39.175781 C 109.039062 37.503906 111.027344 36.921875 112.84375 36.828125 Z M 112.84375 38.570312 " fill-opacity="1" fill-rule="nonzero"/><path fill="#FFFF" d="M 125.089844 38.964844 C 125.089844 38.746094 124.894531 38.746094 124.707031 38.746094 C 124.417969 38.746094 124.394531 38.769531 124.300781 38.988281 C 124.171875 39.339844 123.671875 40.570312 121.972656 40.570312 C 119.378906 40.570312 119.378906 37.769531 119.378906 36.945312 C 119.378906 35.851562 119.390625 33.449219 121.808594 33.449219 C 121.9375 33.449219 123.03125 33.480469 123.03125 33.574219 C 123.03125 33.585938 123.007812 33.609375 122.972656 33.621094 C 122.914062 33.679688 122.671875 33.957031 122.671875 34.421875 C 122.671875 35.191406 123.300781 35.503906 123.765625 35.503906 C 124.148438 35.503906 124.859375 35.273438 124.859375 34.398438 C 124.859375 32.890625 122.730469 32.785156 121.738281 32.785156 C 118.445312 32.785156 117.15625 34.921875 117.15625 37.039062 C 117.15625 39.546875 118.914062 41.242188 121.625 41.242188 C 124.519531 41.242188 125.089844 39.105469 125.089844 38.964844 Z M 125.089844 38.964844 " fill-opacity="1" fill-rule="nonzero"/><path fill="#FFFF" d="M 129.808594 29.648438 C 129.808594 28.890625 129.191406 28.324219 128.46875 28.324219 C 127.710938 28.324219 127.140625 28.949219 127.140625 29.648438 C 127.140625 30.34375 127.710938 30.972656 128.46875 30.972656 C 129.191406 30.972656 129.808594 30.402344 129.808594 29.648438 Z M 126.558594 32.984375 L 126.558594 33.773438 C 127.640625 33.773438 127.769531 33.773438 127.769531 34.492188 L 127.769531 40.335938 L 126.503906 40.335938 L 126.503906 41.128906 C 126.921875 41.09375 128.199219 41.09375 128.703125 41.09375 C 129.214844 41.09375 130.386719 41.09375 130.832031 41.128906 L 130.832031 40.335938 L 129.691406 40.335938 L 129.691406 32.832031 Z M 126.558594 32.984375 " fill-opacity="1" fill-rule="nonzero"/><path fill="#FFFF" d="M 141.242188 37.097656 C 141.242188 34.609375 139.542969 32.785156 136.644531 32.785156 C 133.632812 32.785156 132.027344 34.691406 132.027344 37.097656 C 132.027344 39.5 133.726562 41.242188 136.621094 41.242188 C 139.636719 41.242188 141.242188 39.417969 141.242188 37.097656 Z M 136.644531 40.570312 C 134.238281 40.570312 134.238281 38.421875 134.238281 36.910156 C 134.238281 36.039062 134.238281 35.121094 134.597656 34.457031 C 135.003906 33.714844 135.832031 33.390625 136.621094 33.390625 C 137.667969 33.390625 138.34375 33.890625 138.660156 34.398438 C 139.019531 35.0625 139.019531 36.027344 139.019531 36.910156 C 139.019531 38.433594 139.019531 40.570312 136.644531 40.570312 Z M 136.644531 40.570312 " fill-opacity="1" fill-rule="nonzero"/><path fill="#FFFF" d="M 151.636719 35.492188 C 151.636719 33.738281 150.882812 32.832031 148.855469 32.832031 C 147.519531 32.832031 146.378906 33.480469 145.75 34.863281 L 145.738281 34.863281 L 145.738281 32.832031 L 142.621094 32.984375 L 142.621094 33.773438 C 143.761719 33.773438 143.886719 33.773438 143.886719 34.492188 L 143.886719 40.335938 L 142.621094 40.335938 L 142.621094 41.128906 C 143.039062 41.09375 144.363281 41.09375 144.886719 41.09375 C 145.402344 41.09375 146.75 41.09375 147.167969 41.128906 L 147.167969 40.335938 L 145.902344 40.335938 L 145.902344 36.410156 C 145.902344 34.421875 147.378906 33.449219 148.554688 33.449219 C 149.242188 33.449219 149.625 33.890625 149.625 35.285156 L 149.625 40.335938 L 148.355469 40.335938 L 148.355469 41.128906 C 148.773438 41.09375 150.113281 41.09375 150.625 41.09375 C 151.136719 41.09375 152.488281 41.09375 152.917969 41.128906 L 152.917969 40.335938 L 151.636719 40.335938 Z M 151.636719 35.492188 " fill-opacity="1" fill-rule="nonzero"/><path fill="#FFFF" d="M 161.871094 35.621094 C 161.871094 33.921875 160.523438 32.785156 157.914062 32.785156 C 156.878906 32.785156 154.703125 32.867188 154.703125 34.421875 C 154.703125 35.191406 155.296875 35.527344 155.796875 35.527344 C 156.34375 35.527344 156.878906 35.144531 156.878906 34.433594 C 156.878906 34.085938 156.75 33.761719 156.4375 33.550781 C 157.054688 33.390625 157.496094 33.390625 157.84375 33.390625 C 159.101562 33.390625 159.859375 34.085938 159.859375 35.597656 L 159.859375 36.339844 C 156.9375 36.339844 154.003906 37.140625 154.003906 39.1875 C 154.003906 40.871094 156.148438 41.242188 157.414062 41.242188 C 158.835938 41.242188 159.742188 40.464844 160.113281 39.652344 C 160.113281 40.335938 160.113281 41.128906 161.976562 41.128906 L 162.917969 41.128906 C 163.304688 41.128906 163.453125 41.128906 163.453125 40.722656 C 163.453125 40.335938 163.292969 40.335938 163.023438 40.335938 C 161.871094 40.316406 161.871094 40.023438 161.871094 39.59375 Z M 159.859375 38.570312 C 159.859375 40.304688 158.300781 40.628906 157.71875 40.628906 C 156.808594 40.628906 156.054688 40.023438 156.054688 39.175781 C 156.054688 37.503906 158.042969 36.921875 159.859375 36.828125 Z M 159.859375 38.570312 " fill-opacity="1" fill-rule="nonzero"/><g clip-path="url(#fb87e54e28)"><path fill="#FFFF" d="M 167.476562 28.335938 L 164.289062 28.484375 L 164.289062 29.277344 C 165.425781 29.277344 165.554688 29.277344 165.554688 29.996094 L 165.554688 40.335938 L 164.289062 40.335938 L 164.289062 41.128906 C 164.707031 41.09375 166.019531 41.09375 166.519531 41.09375 C 167.023438 41.09375 168.324219 41.09375 168.753906 41.128906 L 168.753906 40.335938 L 167.476562 40.335938 Z M 167.476562 28.335938 " fill-opacity="1" fill-rule="nonzero"/></g><g clip-path="url(#7f293d4aa8)"><path fill="#FFFF" d="M 13.839844 12.105469 C 13.386719 10.1875 13.132812 9.675781 10.5 9.675781 C 9.734375 9.675781 9.09375 9.675781 9.09375 8.457031 C 9.09375 8.328125 9.164062 7.816406 9.863281 7.816406 C 10.699219 7.816406 11.59375 7.945312 12.433594 7.945312 L 15.191406 7.945312 C 16.527344 7.945312 19.800781 7.816406 21.148438 7.816406 C 21.53125 7.816406 22.300781 7.816406 22.300781 8.96875 C 22.300781 9.675781 21.859375 9.675781 20.765625 9.675781 C 17.808594 9.675781 17.621094 10.128906 17.621094 10.640625 C 17.621094 11.40625 20.507812 22.410156 20.894531 23.886719 C 21.589844 22.097656 23.324219 19.597656 26.664062 19.597656 C 33.902344 19.597656 41.722656 29.011719 41.722656 38.421875 C 41.722656 44.300781 38.394531 48.460938 33.589844 48.460938 C 29.480469 48.460938 26.023438 44.5 25.316406 43.605469 C 24.800781 46.800781 22.300781 48.460938 19.742188 48.460938 C 17.878906 48.460938 16.402344 47.566406 15.191406 45.140625 C 14.027344 42.839844 13.132812 38.933594 13.132812 38.679688 C 13.132812 38.421875 13.386719 38.097656 13.839844 38.097656 C 14.351562 38.097656 14.410156 38.167969 14.808594 39.632812 C 15.761719 43.40625 16.984375 47.183594 19.542969 47.183594 C 21.019531 47.183594 21.53125 46.160156 21.53125 44.242188 C 21.53125 42.710938 21.335938 42.070312 21.078125 40.910156 Z M 24.929688 40.210938 C 25.382812 42 27.175781 43.859375 28.199219 44.753906 C 28.910156 45.394531 31.015625 47.183594 33.460938 47.183594 C 36.277344 47.183594 37.554688 44.371094 37.554688 41.035156 C 37.554688 37.96875 35.765625 30.730469 34.160156 27.40625 C 32.5625 23.957031 29.609375 20.875 26.664062 20.875 C 22.300781 20.875 21.589844 26.382812 21.589844 26.640625 C 21.589844 26.828125 21.71875 27.335938 21.789062 27.664062 Z M 24.929688 40.210938 " fill-opacity="1" fill-rule="nonzero"/></g><path fill="#FFFF" d="M 13.839844 36.316406 C 13.386719 38.234375 13.132812 38.746094 10.5 38.746094 C 9.734375 38.746094 9.09375 38.746094 9.09375 39.96875 C 9.09375 40.09375 9.164062 40.605469 9.863281 40.605469 C 10.699219 40.605469 11.59375 40.476562 12.433594 40.476562 L 15.191406 40.476562 C 16.527344 40.476562 19.800781 40.605469 21.148438 40.605469 C 21.53125 40.605469 22.300781 40.605469 22.300781 39.457031 C 22.300781 38.746094 21.859375 38.746094 20.765625 38.746094 C 17.808594 38.746094 17.621094 38.292969 17.621094 37.78125 C 17.621094 37.015625 20.507812 26.011719 20.894531 24.535156 C 21.589844 26.324219 23.324219 28.824219 26.664062 28.824219 C 33.902344 28.824219 41.722656 19.410156 41.722656 10 C 41.722656 4.121094 38.394531 -0.0390625 33.589844 -0.0390625 C 29.480469 -0.0390625 26.023438 3.921875 25.316406 4.816406 C 24.800781 1.621094 22.300781 -0.0390625 19.742188 -0.0390625 C 17.878906 -0.0390625 16.402344 0.855469 15.191406 3.285156 C 14.027344 5.585938 13.132812 9.488281 13.132812 9.746094 C 13.132812 10 13.386719 10.324219 13.839844 10.324219 C 14.351562 10.324219 14.410156 10.253906 14.808594 8.792969 C 15.761719 5.015625 16.984375 1.238281 19.542969 1.238281 C 21.019531 1.238281 21.53125 2.261719 21.53125 4.179688 C 21.53125 5.710938 21.335938 6.351562 21.078125 7.511719 Z M 24.929688 8.210938 C 25.382812 6.421875 27.175781 4.5625 28.199219 3.667969 C 28.910156 3.027344 31.015625 1.238281 33.460938 1.238281 C 36.277344 1.238281 37.554688 4.050781 37.554688 7.386719 C 37.554688 10.453125 35.765625 17.691406 34.160156 21.015625 C 32.5625 24.464844 29.609375 27.546875 26.664062 27.546875 C 22.300781 27.546875 21.589844 22.039062 21.589844 21.78125 C 21.589844 21.597656 21.71875 21.085938 21.789062 20.757812 Z M 24.929688 8.210938 " fill-opacity="1" fill-rule="nonzero"/><g clip-path="url(#593a095810)"><path fill="#FFFF" d="M 7.195312 40.058594 C 7.195312 40.035156 7.195312 39.964844 7.089844 39.871094 C 5.613281 38.359375 1.667969 34.257812 1.667969 24.253906 C 1.667969 14.25 5.554688 10.171875 7.125 8.566406 C 7.125 8.53125 7.195312 8.472656 7.195312 8.382812 C 7.195312 8.277344 7.089844 8.21875 6.960938 8.21875 C 6.613281 8.21875 3.878906 10.589844 2.308594 14.121094 C 0.703125 17.675781 0.246094 21.140625 0.246094 24.21875 C 0.246094 26.53125 0.480469 30.4375 2.398438 34.574219 C 3.949219 37.917969 6.578125 40.253906 6.960938 40.253906 C 7.125 40.253906 7.195312 40.183594 7.195312 40.058594 Z M 7.195312 40.058594 " fill-opacity="1" fill-rule="nonzero"/></g></svg>